# xmcd CD database file
#
# Track frame offsets:
#	150
#	24843
#	39985
#	59703
#	74979
#	98533
#	117821
#	136383
#	160165
#
# Disc length: 2423 seconds
#
# Revision: 0
# Processed by: cddbd v1.5.2PL0 Copyright (c) Steve Scherf et al.
# Submitted via: CDex 1.79
#
DISCID=77097509
DTITLE=Jedubaby - The Hags
DYEAR=1991
DGENRE=Blues
TTITLE0=Kahiii
TTITLE1=Se mnou nehnes
TTITLE2=Kosikem vod holky
TTITLE3=Requiem
TTITLE4=Byl to pritel nas
TTITLE5=Blues o jejim plasti
TTITLE6=Znovu zrozena
TTITLE7=Pekelnej underground
TTITLE8=Mit tak svuj pisoar
EXTD=YEAR: 1991
EXTT0=
EXTT1=
EXTT2=
EXTT3=
EXTT4=
EXTT5=
EXTT6=
EXTT7=
EXTT8=
PLAYORDER=
